<?xml version="1.0" encoding="utf-8"?>
<!-- Generator: Adobe Illustrator 27.5.0, SVG Export Plug-In . SVG Version: 6.00 Build 0)  -->
<svg version="1.1" xmlns="http://www.w3.org/2000/svg" xmlns:xlink="http://www.w3.org/1999/xlink" x="0px" y="0px"
	 viewBox="0 0 750 500" style="enable-background:new 0 0 750 500;" xml:space="preserve">
<g id="BACKGROUND">
	<rect style="fill:transparent;" width="750" height="500"/>
</g>
<g id="OBJECTS">
	<g>
		<path style="fill:#C0E2E8;" d="M628.546,387.258H129.545V100.384c0-14.841,12.031-26.872,26.872-26.872h445.256
			c14.841,0,26.872,12.031,26.872,26.872V387.258z"/>
		<path style="fill:none;stroke:#A0D0D9;stroke-miterlimit:10;" d="M457.013,143.301H254.917c-4.418,0-8-3.582-8-8V72.822
			c0-4.418,3.582-8,8-8h202.096c4.418,0,8,3.582,8,8v62.479C465.013,139.719,461.431,143.301,457.013,143.301z"/>
		<path style="fill:#A0D0D9;" d="M228.161,255.676H109.297c-5.032,0-9.111-4.079-9.111-9.111V144.097
			c0-5.032,4.079-9.111,9.111-9.111h118.864c5.032,0,9.111,4.079,9.111,9.111v102.468
			C237.272,251.597,233.193,255.676,228.161,255.676z"/>
		<path style="fill:#A0D0D9;" d="M575.138,206.515h-66.201c-4.151,0-7.516-3.365-7.516-7.516V74.598
			c0-4.151,3.365-7.516,7.516-7.516h66.201c4.151,0,7.516,3.365,7.516,7.516v124.401
			C582.654,203.15,579.289,206.515,575.138,206.515z"/>
		<linearGradient id="SVGID_1_" gradientUnits="userSpaceOnUse" x1="486.6003" y1="304.7913" x2="486.6003" y2="346.9937">
			<stop  offset="0" style="stop-color:#C0E2E8"/>
			<stop  offset="0.0359" style="stop-color:#B9D9E5"/>
			<stop  offset="0.2816" style="stop-color:#89A1D3"/>
			<stop  offset="0.5094" style="stop-color:#6375C5"/>
			<stop  offset="0.7123" style="stop-color:#4855BB"/>
			<stop  offset="0.8827" style="stop-color:#3842B5"/>
			<stop  offset="1" style="stop-color:#323BB3"/>
		</linearGradient>
		<path style="fill:url(#SVGID_1_);" d="M522.639,313.703c0.189-1.502,0.298-3.029,0.298-4.583c0-1.553-0.109-3.081-0.298-4.583
			h-8.556c-0.297-1.795-0.764-3.529-1.387-5.191l7.42-4.284c-1.196-2.848-2.747-5.508-4.593-7.932l-7.388,4.265
			c-1.144-1.389-2.421-2.665-3.809-3.809l4.266-7.388c-2.424-1.846-5.085-3.397-7.932-4.593l-4.284,7.42
			c-1.662-0.623-3.396-1.09-5.191-1.387v-8.557c-1.502-0.189-3.029-0.298-4.583-0.298c-1.553,0-3.081,0.109-4.583,0.298v8.557
			c-1.795,0.297-3.529,0.764-5.191,1.387l-4.284-7.42c-2.848,1.196-5.508,2.747-7.932,4.593l4.265,7.388
			c-1.389,1.144-2.665,2.42-3.809,3.809l-7.388-4.265c-1.846,2.424-3.397,5.084-4.593,7.932l7.42,4.284
			c-0.623,1.662-1.09,3.396-1.387,5.191h-8.556c-0.189,1.502-0.298,3.029-0.298,4.583c0,1.554,0.109,3.081,0.298,4.583h8.556
			c0.297,1.795,0.764,3.529,1.387,5.191l-7.42,4.284c1.196,2.848,2.747,5.508,4.593,7.932l7.388-4.265
			c1.145,1.389,2.421,2.665,3.809,3.809l-4.265,7.388c2.424,1.846,5.084,3.397,7.932,4.593l4.284-7.42
			c1.662,0.623,3.396,1.09,5.191,1.387v8.556c1.502,0.189,3.029,0.298,4.583,0.298c1.554,0,3.081-0.109,4.583-0.298v-8.556
			c1.795-0.298,3.529-0.764,5.191-1.387l4.284,7.42c2.848-1.196,5.508-2.747,7.932-4.593l-4.265-7.388
			c1.389-1.145,2.665-2.421,3.809-3.809l7.388,4.265c1.846-2.424,3.397-5.084,4.593-7.932l-7.42-4.284
			c0.623-1.662,1.09-3.396,1.387-5.191H522.639z M486.6,321.68c-6.936,0-12.56-5.623-12.56-12.56s5.623-12.56,12.56-12.56
			c6.937,0,12.56,5.623,12.56,12.56S493.537,321.68,486.6,321.68z"/>
		<g>
			<path style="opacity:0.09;" d="M538.018,303.234H220.073c-4.418,0-8-3.582-8-8V105.26c0-4.418,3.582-8,8-8h317.944
				c4.418,0,8,3.582,8,8v189.974C546.018,299.653,542.436,303.234,538.018,303.234z"/>
			
				<linearGradient id="SVGID_00000096739446324235389980000015388322886417215421_" gradientUnits="userSpaceOnUse" x1="421.6055" y1="196.9143" x2="477.7803" y2="196.9143">
				<stop  offset="0.0713" style="stop-color:#F5F5F5"/>
				<stop  offset="0.1614" style="stop-color:#EEF0F0"/>
				<stop  offset="0.2945" style="stop-color:#DAE2E4"/>
				<stop  offset="0.4544" style="stop-color:#B9CCCF"/>
				<stop  offset="0.6349" style="stop-color:#8CACB3"/>
				<stop  offset="0.8301" style="stop-color:#52858E"/>
				<stop  offset="1" style="stop-color:#1A5E6B"/>
			</linearGradient>
			<path style="fill:url(#SVGID_00000096739446324235389980000015388322886417215421_);" d="M535.568,299.901H217.624
				c-4.418,0-8-3.582-8-8V101.927c0-4.418,3.582-8,8-8h317.944c4.418,0,8,3.582,8,8v189.974
				C543.568,296.32,539.986,299.901,535.568,299.901z"/>
			
				<linearGradient id="SVGID_00000124160559076969238700000008646509377862561429_" gradientUnits="userSpaceOnUse" x1="330.9769" y1="288.1444" x2="330.9769" y2="190.8061">
				<stop  offset="0" style="stop-color:#344DBF;stop-opacity:0"/>
				<stop  offset="1" style="stop-color:#344DBF"/>
			</linearGradient>
			<path style="fill:url(#SVGID_00000124160559076969238700000008646509377862561429_);" d="M452.33,159.455
				c0,0-37.815,14.944-56.659,44.797c-13.562,21.485-24.375,31.516-42.75,31.246c-18.375-0.27-31.5,0.105-41.25,8.73
				c-9.75,8.625-15.375,32.65-35.25,27.575c-18.571-4.742-48.539-18.143-66.798-10.398v30.496c0,4.418,3.582,8,8,8H452.33V159.455z"
				/>
			<path style="fill:#F5F5F5;" d="M535.568,93.927H438.82v205.974h96.748c4.418,0,8-3.582,8-8V101.927
				C543.568,97.509,539.986,93.927,535.568,93.927z"/>
			<g>
				<g>
					<path style="fill:#405AD4;" d="M255.749,269.339v10.546c-13.556,0-24.545-10.989-24.545-24.545
						c0-5.227,1.635-10.075,4.432-14.055l8.634,6.039c-1.588,2.272-2.521,5.042-2.521,8.015
						C241.749,263.078,248.02,269.339,255.749,269.339z"/>
					<path style="fill:#152D94;" d="M280.201,253.308c0.065,0.674,0.092,1.348,0.092,2.032c0,13.556-10.989,24.545-24.545,24.545
						v-10.546c7.729,0,13.999-6.261,13.999-13.999c0-0.388-0.019-0.776-0.055-1.163L280.201,253.308z"/>
					<path style="fill:#758FFF;" d="M280.201,253.308l-10.509,0.868c-0.249-3.075-1.496-5.882-3.426-8.071l7.923-6.963
						C277.57,242.993,279.767,247.896,280.201,253.308z"/>
					<path style="fill:#1E3FD1;" d="M255.749,230.794v10.546c-4.747,0-8.948,2.364-11.478,5.984l-8.634-6.039
						C240.06,234.94,247.419,230.794,255.749,230.794z"/>
					<path style="fill:#244DFF;" d="M274.19,239.142l-7.923,6.963c-2.558-2.918-6.326-4.765-10.518-4.765v-10.546
						C263.099,230.794,269.693,234.026,274.19,239.142z"/>
				</g>
				<g>
					<path style="fill:#1E3FD1;" d="M323.935,230.794v10.546c-7.738,0-14.009,6.27-14.009,13.999c0,0.85,0.074,1.681,0.222,2.484
						l-10.361,1.865c-0.268-1.413-0.397-2.863-0.397-4.349C299.39,241.783,310.379,230.794,323.935,230.794z"/>
					<path style="fill:#405AD4;" d="M312.872,263.927l-8.32,6.455c-2.401-3.066-4.063-6.713-4.765-10.693l10.361-1.865
						C310.555,260.095,311.506,262.182,312.872,263.927z"/>
					<path style="fill:#152D94;" d="M335.811,262.736l8.948,5.578c-4.331,6.944-12.042,11.571-20.824,11.571
						c-7.886,0-14.904-3.721-19.383-9.502l8.32-6.455c2.558,3.297,6.566,5.411,11.063,5.411
						C328.95,269.339,333.345,266.707,335.811,262.736z"/>
					<path style="fill:#758FFF;" d="M337.815,257.168l10.435,1.385c-0.452,3.546-1.671,6.852-3.491,9.761l-8.948-5.578
						C336.854,261.083,337.556,259.199,337.815,257.168z"/>
					<path style="fill:#244DFF;" d="M348.471,255.339c0,1.09-0.074,2.161-0.222,3.214l-10.435-1.385c0.083-0.6,0.12-1.21,0.12-1.828
						c0-7.729-6.27-13.999-13.999-13.999v-10.546C337.482,230.794,348.471,241.783,348.471,255.339z"/>
				</g>
				<g>
					<path style="fill:#405AD4;" d="M392.108,269.339v10.546c-6.769,0-12.91-2.752-17.351-7.184
						c-4.432-4.451-7.184-10.583-7.184-17.361c0-4.063,0.988-7.905,2.752-11.275l9.354,4.839c-1.007,1.93-1.57,4.119-1.57,6.436
						C378.109,263.078,384.379,269.339,392.108,269.339z"/>
					<path style="fill:#152D94;" d="M405.876,257.943l10.352,1.949c-2.133,11.377-12.115,19.992-24.12,19.992v-10.546
						C398.96,269.339,404.658,264.435,405.876,257.943z"/>
					<path style="fill:#758FFF;" d="M416.653,255.339c0,1.551-0.148,3.075-0.425,4.553l-10.352-1.949
						c0.157-0.84,0.24-1.718,0.24-2.604c0-4.996-2.623-9.382-6.566-11.857l5.605-8.93
						C412.063,238.893,416.653,246.576,416.653,255.339z"/>
					<path style="fill:#244DFF;" d="M392.108,230.794c4.793,0,9.271,1.376,13.048,3.758l-5.605,8.93
						c-2.152-1.357-4.71-2.142-7.443-2.142V230.794z"/>
					<path style="fill:#1E3FD1;" d="M392.108,230.794v10.546c-5.411,0-10.102,3.075-12.43,7.563l-9.354-4.839
						C374.396,236.178,382.624,230.794,392.108,230.794z"/>
				</g>
			</g>
			<g>
				<rect x="476.368" y="138.692" style="fill:#479D4F;" width="42.045" height="10.573"/>
				<rect x="507.84" y="138.692" style="fill:#344DBF;" width="10.573" height="10.573"/>
				<g>
					
						<text transform="matrix(1 0 0 1 479.873 146.1967)" style="fill:#F5F5F5; font-family:'OpenSans-Semibold'; font-size:6.2828px;">+0.234</text>
				</g>
				<polygon style="fill:#479D4F;" points="472.949,134.303 468.981,128.717 465.013,134.303 467.217,134.303 467.217,149.264 
					470.745,149.264 470.745,134.303 				"/>
				<g>
					<g>
						<g>
							<path style="fill:#344DBF;" d="M476.585,136.21v-7.026h0.817v6.295h3.118v0.73H476.585z"/>
							<path style="fill:#344DBF;" d="M487.816,132.687c0,0.542-0.069,1.034-0.207,1.478c-0.138,0.444-0.342,0.825-0.612,1.144
								s-0.606,0.564-1.007,0.737c-0.4,0.173-0.865,0.26-1.394,0.26c-0.545,0-1.02-0.086-1.425-0.26
								c-0.405-0.173-0.742-0.419-1.01-0.74c-0.267-0.32-0.468-0.703-0.601-1.149c-0.133-0.445-0.199-0.938-0.199-1.48
								c0-0.718,0.118-1.347,0.355-1.889s0.597-0.962,1.079-1.264s1.087-0.452,1.814-0.452c0.695,0,1.28,0.149,1.756,0.447
								c0.477,0.298,0.837,0.717,1.082,1.257C487.694,131.317,487.816,131.953,487.816,132.687z M482.222,132.687
								c0,0.596,0.085,1.112,0.255,1.547s0.43,0.772,0.78,1.009c0.352,0.237,0.797,0.355,1.339,0.355
								c0.545,0,0.99-0.119,1.338-0.355c0.348-0.237,0.605-0.574,0.771-1.009c0.167-0.436,0.25-0.952,0.25-1.547
								c0-0.907-0.189-1.616-0.569-2.126c-0.38-0.511-0.972-0.767-1.775-0.767c-0.545,0-0.993,0.117-1.346,0.351
								c-0.353,0.234-0.614,0.566-0.786,0.998C482.308,131.573,482.222,132.088,482.222,132.687z"/>
							<path style="fill:#344DBF;" d="M491.276,129.184c0.577,0,1.053,0.071,1.43,0.214c0.376,0.143,0.657,0.36,0.844,0.651
								c0.186,0.292,0.278,0.663,0.278,1.115c0,0.372-0.067,0.682-0.202,0.93c-0.134,0.249-0.311,0.45-0.528,0.603
								c-0.218,0.154-0.45,0.272-0.696,0.356l1.927,3.157h-0.952l-1.72-2.932h-1.461v2.932h-0.817v-7.026H491.276z M491.228,129.89
								h-1.033v2.696h1.114c0.574,0,0.996-0.117,1.267-0.351s0.406-0.579,0.406-1.033c0-0.478-0.144-0.815-0.43-1.014
								C492.265,129.99,491.824,129.89,491.228,129.89z"/>
							<path style="fill:#344DBF;" d="M499.364,136.21h-3.912v-7.026h3.912v0.721h-3.095v2.273h2.917v0.711h-2.917v2.6h3.095V136.21
								z"/>
							<path style="fill:#344DBF;" d="M504.01,136.21l-2.359-6.219h-0.038c0.013,0.132,0.023,0.292,0.033,0.481
								s0.018,0.395,0.024,0.617c0.006,0.223,0.01,0.45,0.01,0.68v4.44h-0.76v-7.026h1.211l2.226,5.844h0.033l2.259-5.844h1.201
								v7.026h-0.807v-4.498c0-0.208,0.003-0.417,0.009-0.627c0.007-0.21,0.015-0.409,0.024-0.596s0.02-0.35,0.029-0.488h-0.039
								l-2.389,6.209H504.01z"/>
						</g>
					</g>
				</g>
				
					<line style="fill:none;stroke:#ADADAD;stroke-width:0.3461;stroke-miterlimit:10;" x1="463.975" y1="153.109" x2="518.413" y2="153.109"/>
				<rect x="476.368" y="166.928" style="fill:#E05150;" width="42.045" height="10.573"/>
				<rect x="507.84" y="166.928" style="fill:#344DBF;" width="10.573" height="10.573"/>
				<g>
					
						<text transform="matrix(1 0 0 1 479.873 174.4326)" style="fill:#F5F5F5; font-family:'OpenSans-Semibold'; font-size:6.2828px;">-0.234</text>
				</g>
				<polygon style="fill:#E05150;" points="465.013,171.915 468.981,177.5 472.949,171.915 470.745,171.915 470.745,156.953 
					467.217,156.953 467.217,171.915 				"/>
				<g>
					<g>
						<g>
							<path style="fill:#344DBF;" d="M476.585,164.446v-7.026h0.817v7.026H476.585z"/>
							<path style="fill:#344DBF;" d="M481.17,157.42c0.906,0,1.569,0.177,1.987,0.531s0.627,0.861,0.627,1.521
								c0,0.298-0.049,0.581-0.146,0.848s-0.256,0.503-0.474,0.706c-0.218,0.204-0.504,0.364-0.857,0.481
								c-0.354,0.117-0.787,0.175-1.3,0.175h-0.855v2.763h-0.817v-7.026H481.17z M481.092,158.117h-0.941v2.864h0.764
								c0.448,0,0.822-0.048,1.122-0.144c0.3-0.096,0.524-0.252,0.676-0.469c0.15-0.216,0.226-0.504,0.226-0.863
								c0-0.467-0.149-0.816-0.447-1.045S481.727,158.117,481.092,158.117z"/>
							<path style="fill:#344DBF;" d="M489.218,162.576c0,0.417-0.104,0.771-0.31,1.064c-0.207,0.293-0.496,0.517-0.868,0.67
								c-0.371,0.154-0.809,0.231-1.312,0.231c-0.266,0-0.518-0.013-0.755-0.039c-0.236-0.025-0.455-0.063-0.653-0.11
								c-0.198-0.048-0.373-0.107-0.523-0.178v-0.784c0.24,0.1,0.533,0.191,0.879,0.276c0.347,0.085,0.708,0.127,1.086,0.127
								c0.353,0,0.65-0.047,0.895-0.142c0.243-0.095,0.428-0.231,0.555-0.409s0.189-0.392,0.189-0.642
								c0-0.24-0.053-0.441-0.158-0.603s-0.281-0.309-0.526-0.442c-0.245-0.133-0.579-0.275-1.002-0.425
								c-0.298-0.106-0.561-0.222-0.788-0.349s-0.418-0.27-0.571-0.43c-0.154-0.16-0.271-0.346-0.349-0.557
								c-0.079-0.212-0.118-0.454-0.118-0.726c0-0.375,0.096-0.696,0.286-0.963s0.455-0.473,0.793-0.615s0.727-0.214,1.165-0.214
								c0.375,0,0.722,0.036,1.041,0.106c0.318,0.07,0.61,0.165,0.877,0.284l-0.255,0.701c-0.253-0.105-0.521-0.193-0.805-0.264
								c-0.284-0.07-0.576-0.105-0.877-0.105c-0.302,0-0.556,0.044-0.762,0.132c-0.207,0.088-0.365,0.212-0.474,0.373
								c-0.109,0.16-0.163,0.351-0.163,0.572c0,0.247,0.052,0.452,0.156,0.615c0.104,0.164,0.271,0.309,0.499,0.435
								c0.229,0.126,0.533,0.259,0.911,0.396c0.413,0.15,0.764,0.31,1.053,0.478c0.288,0.168,0.507,0.373,0.658,0.615
								C489.143,161.898,489.218,162.204,489.218,162.576z"/>
							<path style="fill:#344DBF;" d="M495.966,157.42v4.546c0,0.497-0.101,0.938-0.301,1.326s-0.502,0.693-0.905,0.916
								c-0.404,0.223-0.91,0.334-1.519,0.334c-0.868,0-1.529-0.235-1.982-0.707c-0.454-0.471-0.681-1.101-0.681-1.889v-4.527h0.822
								v4.551c0,0.596,0.157,1.056,0.474,1.379c0.315,0.324,0.787,0.485,1.415,0.485c0.429,0,0.78-0.078,1.055-0.233
								c0.273-0.155,0.478-0.374,0.61-0.654s0.199-0.604,0.199-0.973v-4.556H495.966z"/>
							<path style="fill:#344DBF;" d="M500.916,164.446l-2.359-6.219h-0.038c0.013,0.132,0.023,0.292,0.033,0.481
								s0.018,0.395,0.024,0.617c0.006,0.223,0.01,0.45,0.01,0.68v4.44h-0.76v-7.026h1.211l2.226,5.844h0.033l2.259-5.844h1.201
								v7.026h-0.807v-4.498c0-0.208,0.003-0.417,0.009-0.627c0.007-0.21,0.015-0.409,0.024-0.596s0.02-0.35,0.029-0.488h-0.039
								l-2.389,6.209H500.916z"/>
						</g>
					</g>
				</g>
				
					<line style="fill:none;stroke:#ADADAD;stroke-width:0.3461;stroke-miterlimit:10;" x1="463.975" y1="181.345" x2="518.413" y2="181.345"/>
				<rect x="476.368" y="195.163" style="fill:#E05150;" width="42.045" height="10.573"/>
				<rect x="507.84" y="195.163" style="fill:#344DBF;" width="10.573" height="10.573"/>
				<g>
					
						<text transform="matrix(1 0 0 1 479.873 202.6684)" style="fill:#F5F5F5; font-family:'OpenSans-Semibold'; font-size:6.2828px;">-1.234</text>
				</g>
				<polygon style="fill:#E05150;" points="465.013,200.151 468.981,205.736 472.949,200.151 470.745,200.151 470.745,185.189 
					467.217,185.189 467.217,200.151 				"/>
				<g>
					<g>
						<g>
							<path style="fill:#344DBF;" d="M482.164,189.102c0,0.791-0.144,1.452-0.432,1.982c-0.289,0.53-0.706,0.929-1.252,1.196
								c-0.547,0.268-1.209,0.401-1.987,0.401h-1.908v-7.026h2.119c0.715,0,1.33,0.13,1.846,0.392s0.914,0.647,1.194,1.158
								C482.024,187.717,482.164,188.349,482.164,189.102z M481.304,189.131c0-0.631-0.105-1.152-0.315-1.562
								s-0.518-0.715-0.923-0.916s-0.9-0.3-1.487-0.3h-1.177v5.627h0.994c0.968,0,1.694-0.239,2.18-0.716
								C481.061,190.787,481.304,190.076,481.304,189.131z"/>
							<path style="fill:#344DBF;" d="M489.82,189.159c0,0.542-0.069,1.034-0.207,1.478c-0.138,0.444-0.342,0.825-0.612,1.144
								s-0.606,0.564-1.007,0.737c-0.4,0.173-0.865,0.26-1.394,0.26c-0.545,0-1.02-0.086-1.425-0.26
								c-0.405-0.173-0.742-0.419-1.01-0.74c-0.267-0.32-0.468-0.703-0.601-1.149c-0.133-0.445-0.199-0.938-0.199-1.48
								c0-0.718,0.118-1.347,0.355-1.889s0.597-0.962,1.079-1.264s1.087-0.452,1.814-0.452c0.695,0,1.28,0.149,1.756,0.447
								c0.477,0.298,0.837,0.717,1.082,1.257C489.698,187.789,489.82,188.426,489.82,189.159z M484.226,189.159
								c0,0.596,0.085,1.112,0.255,1.547s0.43,0.772,0.78,1.009c0.352,0.237,0.797,0.355,1.339,0.355
								c0.545,0,0.99-0.119,1.338-0.355c0.348-0.237,0.605-0.574,0.771-1.009c0.167-0.436,0.25-0.952,0.25-1.547
								c0-0.907-0.189-1.616-0.569-2.126c-0.38-0.511-0.972-0.767-1.775-0.767c-0.545,0-0.993,0.117-1.346,0.351
								c-0.353,0.234-0.614,0.566-0.786,0.998C484.312,188.045,484.226,188.56,484.226,189.159z"/>
							<path style="fill:#344DBF;" d="M491.381,192.682v-7.026h0.817v6.295h3.118v0.73H491.381z"/>
							<path style="fill:#344DBF;" d="M502.612,189.159c0,0.542-0.069,1.034-0.207,1.478c-0.138,0.444-0.342,0.825-0.612,1.144
								s-0.606,0.564-1.007,0.737c-0.4,0.173-0.865,0.26-1.394,0.26c-0.545,0-1.02-0.086-1.425-0.26
								c-0.405-0.173-0.742-0.419-1.01-0.74c-0.267-0.32-0.468-0.703-0.601-1.149c-0.133-0.445-0.199-0.938-0.199-1.48
								c0-0.718,0.118-1.347,0.355-1.889s0.597-0.962,1.079-1.264s1.087-0.452,1.814-0.452c0.695,0,1.28,0.149,1.756,0.447
								c0.477,0.298,0.837,0.717,1.082,1.257C502.49,187.789,502.612,188.426,502.612,189.159z M497.018,189.159
								c0,0.596,0.085,1.112,0.255,1.547s0.43,0.772,0.78,1.009c0.352,0.237,0.797,0.355,1.339,0.355
								c0.545,0,0.99-0.119,1.338-0.355c0.348-0.237,0.605-0.574,0.771-1.009c0.167-0.436,0.25-0.952,0.25-1.547
								c0-0.907-0.189-1.616-0.569-2.126c-0.38-0.511-0.972-0.767-1.775-0.767c-0.545,0-0.993,0.117-1.346,0.351
								c-0.353,0.234-0.614,0.566-0.786,0.998C497.104,188.045,497.018,188.56,497.018,189.159z"/>
							<path style="fill:#344DBF;" d="M506.072,185.656c0.577,0,1.053,0.071,1.43,0.214c0.376,0.143,0.657,0.36,0.844,0.651
								c0.186,0.292,0.278,0.663,0.278,1.115c0,0.372-0.067,0.682-0.202,0.93c-0.134,0.249-0.311,0.45-0.528,0.603
								c-0.218,0.154-0.45,0.272-0.696,0.356l1.927,3.157h-0.952l-1.72-2.932h-1.461v2.932h-0.817v-7.026H506.072z M506.024,186.363
								h-1.033v2.696h1.114c0.574,0,0.996-0.117,1.267-0.351s0.406-0.579,0.406-1.033c0-0.478-0.144-0.815-0.43-1.014
								C507.061,186.462,506.62,186.363,506.024,186.363z"/>
						</g>
					</g>
				</g>
				
					<line style="fill:none;stroke:#ADADAD;stroke-width:0.3461;stroke-miterlimit:10;" x1="463.975" y1="209.581" x2="518.413" y2="209.581"/>
				<rect x="476.368" y="223.399" style="fill:#479D4F;" width="42.045" height="10.573"/>
				<rect x="507.84" y="223.399" style="fill:#344DBF;" width="10.573" height="10.573"/>
				<g>
					
						<text transform="matrix(1 0 0 1 479.873 230.9043)" style="fill:#F5F5F5; font-family:'OpenSans-Semibold'; font-size:6.2828px;">+0.234</text>
				</g>
				<polygon style="fill:#479D4F;" points="472.949,219.01 468.981,213.425 465.013,219.01 467.217,219.01 467.217,233.972 
					470.745,233.972 470.745,219.01 				"/>
				<g>
					<g>
						<g>
							<path style="fill:#344DBF;" d="M480.992,220.918l-0.865-2.23h-2.816l-0.86,2.23h-0.826l2.749-7.055h0.735l2.729,7.055
								H480.992z M479.881,217.962l-0.821-2.215c-0.02-0.058-0.051-0.152-0.094-0.284c-0.044-0.131-0.088-0.267-0.133-0.408
								s-0.081-0.255-0.11-0.341c-0.032,0.131-0.066,0.262-0.104,0.392s-0.072,0.25-0.107,0.36
								c-0.036,0.111-0.066,0.205-0.092,0.281l-0.836,2.215H479.881z"/>
							<path style="fill:#344DBF;" d="M485.898,220.918l-2.359-6.219h-0.038c0.013,0.132,0.023,0.292,0.033,0.481
								s0.018,0.395,0.024,0.617c0.006,0.223,0.01,0.45,0.01,0.68v4.44h-0.76v-7.026h1.211l2.226,5.844h0.033l2.259-5.844h1.201
								v7.026h-0.807v-4.498c0-0.208,0.003-0.417,0.009-0.627c0.007-0.21,0.015-0.409,0.024-0.596s0.02-0.35,0.029-0.488h-0.039
								l-2.389,6.209H485.898z"/>
							<path style="fill:#344DBF;" d="M495.572,220.918h-3.912v-7.026h3.912v0.721h-3.095v2.273h2.917v0.711h-2.917v2.6h3.095
								V220.918z"/>
							<path style="fill:#344DBF;" d="M499.287,220.918h-0.822v-6.305h-2.21v-0.721h5.233v0.721h-2.201V220.918z"/>
						</g>
					</g>
				</g>
				
					<line style="fill:none;stroke:#ADADAD;stroke-width:0.3461;stroke-miterlimit:10;" x1="463.975" y1="237.817" x2="518.413" y2="237.817"/>
				<rect x="476.368" y="251.635" style="fill:#479D4F;" width="42.045" height="10.573"/>
				<rect x="507.84" y="251.635" style="fill:#344DBF;" width="10.573" height="10.573"/>
				<g>
					
						<text transform="matrix(1 0 0 1 479.873 259.1401)" style="fill:#F5F5F5; font-family:'OpenSans-Semibold'; font-size:6.2828px;">+0.234</text>
				</g>
				<polygon style="fill:#479D4F;" points="472.949,247.246 468.981,241.661 465.013,247.246 467.217,247.246 467.217,262.208 
					470.745,262.208 470.745,247.246 				"/>
				<g>
					<g>
						<g>
							<path style="fill:#344DBF;" d="M481.492,242.127l-2.523,7.026h-0.821l-2.523-7.026h0.855l1.644,4.628
								c0.067,0.187,0.127,0.364,0.18,0.534c0.054,0.17,0.101,0.333,0.143,0.49c0.041,0.156,0.078,0.309,0.11,0.456
								c0.032-0.147,0.068-0.3,0.11-0.459c0.042-0.158,0.09-0.323,0.145-0.495c0.054-0.171,0.115-0.352,0.183-0.54l1.634-4.614
								H481.492z"/>
							<path style="fill:#344DBF;" d="M486.365,249.154h-3.912v-7.026h3.912v0.722h-3.095v2.272h2.917v0.712h-2.917v2.6h3.095
								V249.154z"/>
							<path style="fill:#344DBF;" d="M493.415,249.154h-0.942l-3.83-5.901h-0.038c0.01,0.157,0.021,0.336,0.033,0.536
								c0.014,0.2,0.023,0.413,0.031,0.639c0.009,0.226,0.013,0.456,0.013,0.689v4.037h-0.76v-7.026h0.938l3.815,5.883h0.034
								c-0.007-0.112-0.015-0.271-0.024-0.479c-0.01-0.206-0.019-0.429-0.026-0.668c-0.008-0.238-0.012-0.46-0.012-0.665v-4.071
								h0.769V249.154z"/>
							<path style="fill:#344DBF;" d="M495.332,249.154v-7.026h0.817v7.026H495.332z"/>
							<path style="fill:#344DBF;" d="M502.488,249.154l-0.865-2.229h-2.816l-0.86,2.229h-0.826l2.749-7.055h0.735l2.729,7.055
								H502.488z M501.378,246.199l-0.821-2.216c-0.02-0.058-0.051-0.152-0.094-0.283c-0.044-0.132-0.088-0.268-0.133-0.409
								c-0.045-0.141-0.081-0.254-0.11-0.341c-0.032,0.132-0.066,0.262-0.104,0.392s-0.072,0.25-0.107,0.36
								c-0.036,0.11-0.066,0.204-0.092,0.281l-0.836,2.216H501.378z"/>
							<path style="fill:#344DBF;" d="M507.393,249.154l-2.359-6.219h-0.038c0.013,0.132,0.023,0.292,0.033,0.48
								c0.01,0.189,0.018,0.396,0.024,0.618c0.006,0.223,0.01,0.449,0.01,0.68v4.44h-0.76v-7.026h1.211l2.226,5.844h0.033
								l2.259-5.844h1.201v7.026h-0.807v-4.498c0-0.208,0.003-0.417,0.009-0.627c0.007-0.21,0.015-0.409,0.024-0.596
								c0.01-0.188,0.02-0.351,0.029-0.488h-0.039l-2.389,6.209H507.393z"/>
						</g>
					</g>
				</g>
				
					<line style="fill:none;stroke:#ADADAD;stroke-width:0.3461;stroke-miterlimit:10;" x1="463.975" y1="266.052" x2="518.413" y2="266.052"/>
			</g>
		</g>
		<g>
			<circle style="fill:#344DBF;" cx="112.68" cy="134.314" r="25.031"/>
			<polygon style="fill:#344DBF;" points="134.123,140.227 147.328,151.746 129.977,148.236 			"/>
			<g>
				<g>
					<path style="fill:#F5F5F5;" d="M97.697,129.06h3.166c1.397,0,2.447,0.209,3.15,0.627c0.704,0.418,1.056,1.129,1.056,2.133
						c0,0.434-0.083,0.822-0.249,1.166c-0.166,0.344-0.407,0.628-0.723,0.853c-0.316,0.225-0.706,0.38-1.17,0.467v0.076
						c0.489,0.077,0.922,0.217,1.3,0.421c0.377,0.204,0.673,0.489,0.887,0.856c0.214,0.367,0.321,0.833,0.321,1.399
						c0,0.688-0.159,1.27-0.478,1.744c-0.318,0.474-0.768,0.832-1.35,1.074c-0.581,0.242-1.269,0.363-2.064,0.363h-3.846V129.06z
						 M98.997,133.855h2.141c0.974,0,1.648-0.161,2.022-0.482c0.375-0.321,0.562-0.79,0.562-1.407c0-0.637-0.223-1.096-0.669-1.376
						s-1.156-0.421-2.129-0.421h-1.927V133.855z M98.997,134.948v4.183h2.325c0.994,0,1.698-0.195,2.11-0.585
						c0.413-0.39,0.62-0.916,0.62-1.579c0-0.423-0.093-0.785-0.279-1.085s-0.487-0.532-0.902-0.692
						c-0.416-0.16-0.97-0.241-1.663-0.241H98.997z"/>
					<path style="fill:#F5F5F5;" d="M116.271,129.06v7.233c0,0.791-0.159,1.494-0.478,2.111c-0.319,0.617-0.799,1.102-1.441,1.457
						c-0.643,0.354-1.448,0.531-2.417,0.531c-1.381,0-2.433-0.375-3.154-1.124s-1.082-1.751-1.082-3.005v-7.203h1.308v7.241
						c0,0.948,0.251,1.68,0.753,2.194c0.502,0.515,1.252,0.772,2.252,0.772c0.683,0,1.242-0.124,1.678-0.371
						c0.436-0.248,0.759-0.594,0.971-1.04c0.211-0.446,0.317-0.962,0.317-1.548v-7.249H116.271z"/>
					<path style="fill:#F5F5F5;" d="M122.082,134.665l2.975-5.605h1.399l-3.724,6.844v4.335h-1.3v-4.274l-3.731-6.905h1.422
						L122.082,134.665z"/>
				</g>
			</g>
		</g>
		<g>
			<circle style="fill:#479D4F;" cx="623.647" cy="135.239" r="27.967"/>
			<polygon style="fill:#479D4F;" points="599.69,141.846 580.44,154.512 604.322,150.794 			"/>
			<g>
				<g>
					<path style="fill:#F5F5F5;" d="M613.71,136.715c0,0.679-0.168,1.256-0.505,1.734c-0.336,0.478-0.808,0.841-1.412,1.092
						c-0.605,0.25-1.318,0.376-2.137,0.376c-0.434,0-0.843-0.021-1.229-0.063c-0.386-0.042-0.741-0.102-1.064-0.18
						c-0.323-0.079-0.607-0.175-0.853-0.29v-1.276c0.391,0.162,0.868,0.312,1.432,0.45c0.563,0.139,1.153,0.208,1.77,0.208
						c0.573,0,1.059-0.077,1.456-0.231c0.396-0.154,0.697-0.375,0.903-0.665s0.31-0.638,0.31-1.045c0-0.392-0.086-0.719-0.259-0.982
						c-0.172-0.264-0.458-0.503-0.856-0.72c-0.399-0.216-0.943-0.447-1.632-0.692c-0.485-0.172-0.914-0.361-1.284-0.568
						c-0.37-0.206-0.681-0.439-0.932-0.7c-0.25-0.261-0.439-0.563-0.567-0.908c-0.128-0.344-0.191-0.738-0.191-1.182
						c0-0.611,0.155-1.134,0.466-1.569c0.311-0.436,0.74-0.77,1.291-1.002c0.551-0.232,1.184-0.349,1.898-0.349
						c0.61,0,1.175,0.058,1.694,0.172s0.995,0.269,1.429,0.462l-0.415,1.143c-0.412-0.172-0.85-0.315-1.311-0.43
						c-0.462-0.115-0.938-0.172-1.429-0.172c-0.491,0-0.904,0.072-1.241,0.215c-0.336,0.144-0.593,0.346-0.771,0.606
						c-0.178,0.261-0.267,0.571-0.267,0.932c0,0.402,0.085,0.736,0.255,1.002s0.44,0.502,0.813,0.708
						c0.373,0.207,0.868,0.421,1.483,0.646c0.674,0.245,1.245,0.505,1.715,0.779s0.826,0.608,1.072,1.002
						C613.588,135.61,613.71,136.11,613.71,136.715z"/>
					<path style="fill:#F5F5F5;" d="M622.414,139.76h-6.371v-11.443h6.371v1.174h-5.04v3.702h4.751v1.158h-4.751v4.234h5.04V139.76z
						"/>
					<path style="fill:#F5F5F5;" d="M624.95,139.76v-11.443h1.331v10.253h5.079v1.19H624.95z"/>
					<path style="fill:#F5F5F5;" d="M633.317,139.76v-11.443h1.331v10.253h5.079v1.19H633.317z"/>
				</g>
			</g>
		</g>
		<g>
			<g>
				
					<linearGradient id="SVGID_00000158021316485192509060000017754831745381596086_" gradientUnits="userSpaceOnUse" x1="555.1363" y1="381.4788" x2="555.1363" y2="303.1873">
					<stop  offset="0" style="stop-color:#1A5E6B"/>
					<stop  offset="0.957" style="stop-color:#20853E"/>
				</linearGradient>
				<path style="fill:url(#SVGID_00000158021316485192509060000017754831745381596086_);" d="M578.801,267.104
					c0.006,4.903-6.25,10.756-14.375,14.659c-8.125,3.903-14.125,12.06-13.656,26.685c0.469,14.625-2.431,20.792-11.106,25.583
					c-8.675,4.792-12.405,15.76-9.977,24.198c2.427,8.438-8.823,19.808-6.01,29.029h61.875c0,0,3.375-11.592,0-22.56
					c-3.375-10.969-7.313-11.531-7.875-22.781c-0.563-11.25,7.327-16.312,6.476-24.75c-0.851-8.438-3.945-7.313-3.945-15.188
					s2.023-6.052,3.945-11.578C586.073,284.874,583.02,273.01,578.801,267.104z"/>
				<path style="fill:none;stroke:#F5F5F5;stroke-width:0.5;stroke-miterlimit:10;" d="M579.082,272.393
					c0.281,9.617-10.688,20.003-13.219,30.841c-2.531,10.838,3.063,20.191-1.141,29.858s-10.672,16.417-10.953,25.98
					c-0.281,9.562,1.969,21.496,0,28.185"/>
			</g>
			<g>
				
					<linearGradient id="SVGID_00000041982711824676089260000010229901900710370973_" gradientUnits="userSpaceOnUse" x1="622.0666" y1="374.4247" x2="662.8478" y2="302.1436">
					<stop  offset="0" style="stop-color:#1A5E6B"/>
					<stop  offset="0.957" style="stop-color:#20853E"/>
				</linearGradient>
				<path style="fill:url(#SVGID_00000041982711824676089260000010229901900710370973_);" d="M598.31,387.258
					c0,0-4.125-8.779-1.875-25.467s16.875-16.125,22.688-18s9-5.813,9-13.312c0-7.5,3.75-10.875,11.625-11.25
					c7.875-0.375,15.375,0.563,18-5.625s14.438-12.375,24.375-9.75c-7.5,3.75-5.625,13.125-5.438,17.438s-0.188,9.938-9.188,11.625
					s-7.875,9.359-5.25,13.679c2.625,4.321,6.375,12.383-3.75,15.008s-16.5,14.371-9,25.654H598.31z"/>
				<path style="fill:none;stroke:#F5F5F5;stroke-width:0.5;stroke-miterlimit:10;" d="M677.798,304.173
					c-9.544,1.944-10.604,11.488-16.613,17.85c-6.009,6.363-13.078,5.832-16.79,15.023c-3.711,9.19-0.602,15.576-5.452,20.148
					c-4.85,4.572-22.649,17.888-21.235,30.064"/>
			</g>
			<g>
				<path style="fill:#479D4F;" d="M649.872,263.354c0,0,7.5,7.125,6.563,16.125c-0.938,9-8.18,15.238-9.75,22.5
					c-1.5,6.938,1.5,13.313,2.438,17.438s1.125,9.938-10.5,14.063c-11.625,4.125-12.562,12.562-7.312,18
					c5.25,5.438,5.625,12-6.563,18.938c-12.188,6.938-11.285,16.842-11.285,16.842h-53.215c0,0-2.25-1.467,3.563-9.717
					s9-11.813,9-19.313s-1.875-12.563,3-19.313c4.875-6.75,16.06-6.757,20.25-11.25c4.19-4.493,1.059-18.194,1.875-24.563
					c0.817-6.368,6.563-6.938,15-8.438s11.063-3.75,11.813-10.125c0.75-6.375,4.688-12,11.062-13.781
					C642.185,268.979,650.997,268.604,649.872,263.354z"/>
				<path style="fill:none;stroke:#F5F5F5;stroke-width:0.5;stroke-miterlimit:10;" d="M650.716,267.104
					c1.125,5.063-5.344,8.719-11.531,14.344c-6.187,5.625-11.25,15.188-12.937,22.5s-8.156,14.029-12.938,21.358
					c-4.781,7.329-10.526,18.839-12.375,29.267c-3.375,19.031-18.281,32.685-18.281,32.685"/>
			</g>
		</g>
		<g>
			<g>
				
					<linearGradient id="SVGID_00000079483008505835975510000012107569564504309910_" gradientUnits="userSpaceOnUse" x1="1030.8241" y1="381.4788" x2="1030.8241" y2="303.1873" gradientTransform="matrix(-1 0 0 1 1225.6877 0)">
					<stop  offset="0" style="stop-color:#1A5E6B"/>
					<stop  offset="0.957" style="stop-color:#20853E"/>
				</linearGradient>
				<path style="fill:url(#SVGID_00000079483008505835975510000012107569564504309910_);" d="M171.199,267.104
					c-0.006,4.903,6.25,10.756,14.375,14.659c8.125,3.903,14.125,12.06,13.656,26.685c-0.469,14.625,2.431,20.792,11.106,25.583
					c8.675,4.792,12.405,15.76,9.977,24.198c-2.427,8.438,8.823,19.808,6.01,29.029h-61.875c0,0-3.375-11.592,0-22.56
					c3.375-10.969,7.313-11.531,7.875-22.781c0.563-11.25-7.327-16.312-6.476-24.75c0.851-8.438,3.945-7.313,3.945-15.188
					s-2.023-6.052-3.945-11.578C163.926,284.874,166.98,273.01,171.199,267.104z"/>
				<path style="fill:none;stroke:#F5F5F5;stroke-width:0.5;stroke-miterlimit:10;" d="M170.918,272.393
					c-0.281,9.617,10.688,20.003,13.219,30.841c2.531,10.838-3.063,20.191,1.141,29.858s10.672,16.417,10.953,25.98
					c0.281,9.562-1.969,21.496,0,28.185"/>
			</g>
			<g>
				
					<linearGradient id="SVGID_00000107581549633528458290000002686596015584947872_" gradientUnits="userSpaceOnUse" x1="1097.7544" y1="374.4247" x2="1138.5356" y2="302.1436" gradientTransform="matrix(-1 0 0 1 1225.6877 0)">
					<stop  offset="0" style="stop-color:#1A5E6B"/>
					<stop  offset="0.957" style="stop-color:#20853E"/>
				</linearGradient>
				<path style="fill:url(#SVGID_00000107581549633528458290000002686596015584947872_);" d="M151.69,387.258
					c0,0,4.125-8.779,1.875-25.467s-16.875-16.125-22.688-18c-5.812-1.875-9-5.813-9-13.312c0-7.5-3.75-10.875-11.625-11.25
					c-7.875-0.375-15.375,0.563-18-5.625s-14.437-12.375-24.375-9.75c7.5,3.75,5.625,13.125,5.437,17.438s0.188,9.938,9.187,11.625
					s7.875,9.359,5.25,13.679c-2.625,4.321-6.375,12.383,3.75,15.008c10.125,2.625,16.5,14.371,9,25.654H151.69z"/>
				<path style="fill:none;stroke:#F5F5F5;stroke-width:0.5;stroke-miterlimit:10;" d="M72.202,304.173
					c9.544,1.944,10.604,11.488,16.613,17.85c6.009,6.363,13.078,5.832,16.79,15.023c3.712,9.19,0.602,15.576,5.452,20.148
					c4.85,4.572,22.649,17.888,21.235,30.064"/>
			</g>
			<g>
				<path style="fill:#479D4F;" d="M100.128,263.354c0,0-7.5,7.125-6.563,16.125c0.938,9,8.18,15.238,9.75,22.5
					c1.5,6.938-1.5,13.313-2.438,17.438s-1.125,9.938,10.5,14.063c11.625,4.125,12.562,12.562,7.312,18
					c-5.25,5.438-5.625,12,6.563,18.938c12.187,6.938,11.285,16.842,11.285,16.842h53.215c0,0,2.25-1.467-3.563-9.717
					s-9-11.813-9-19.313s1.875-12.563-3-19.313c-4.875-6.75-16.06-6.757-20.25-11.25c-4.19-4.493-1.058-18.194-1.875-24.563
					c-0.816-6.368-6.563-6.938-15-8.438s-11.062-3.75-11.812-10.125c-0.75-6.375-4.688-12-11.062-13.781
					C107.815,268.979,99.003,268.604,100.128,263.354z"/>
				<path style="fill:none;stroke:#F5F5F5;stroke-width:0.5;stroke-miterlimit:10;" d="M99.284,267.104
					c-1.125,5.063,5.344,8.719,11.531,14.344c6.187,5.625,11.25,15.188,12.937,22.5s8.156,14.029,12.937,21.358
					c4.781,7.329,10.526,18.839,12.375,29.267c3.375,19.031,18.281,32.685,18.281,32.685"/>
			</g>
		</g>
		<ellipse style="fill:#C0E2E8;" cx="178.547" cy="420.369" rx="73.875" ry="21.75"/>
		<g>
			<path style="opacity:0.09;" d="M433.088,400.915H253.295c-4.509,0-8.165-3.656-8.165-8.165v-69.606
				c0-4.509,3.655-8.165,8.165-8.165h179.793c4.509,0,8.165,3.655,8.165,8.165v69.606
				C441.253,397.26,437.597,400.915,433.088,400.915z"/>
			<path style="fill:#F5F5F5;" d="M430.655,398.729H250.862c-4.509,0-8.165-3.655-8.165-8.165v-69.606
				c0-4.509,3.656-8.165,8.165-8.165h179.793c4.509,0,8.165,3.655,8.165,8.165v69.606
				C438.82,395.073,435.164,398.729,430.655,398.729z"/>
			<g>
				<path style="fill:#E05150;" d="M418.815,330.393h-24.692c-0.689,0-1.248-0.559-1.248-1.248v-3.822
					c0-0.689,0.559-1.248,1.248-1.248h24.692c0.689,0,1.248,0.559,1.248,1.248v3.822
					C420.063,329.834,419.504,330.393,418.815,330.393z"/>
				<path style="fill:#479D4F;" d="M385.986,330.393h-24.692c-0.689,0-1.248-0.559-1.248-1.248v-3.822
					c0-0.689,0.559-1.248,1.248-1.248h24.692c0.689,0,1.248,0.559,1.248,1.248v3.822
					C387.234,329.834,386.675,330.393,385.986,330.393z"/>
			</g>
			<path style="fill:#758FFF;" d="M250.862,398.729h179.793c4.509,0,8.165-3.655,8.165-8.165v-64.398l-45.944,46.969l-19.235-15.188
				l-22.688,16.031l-26.297-34.594l-38.39,34.312l-13.781-13.219l-18.563,21.656l-11.224-13.599v22.028
				C242.697,395.073,246.353,398.729,250.862,398.729z"/>
			
				<linearGradient id="SVGID_00000075851630575975984520000009341071267133407388_" gradientUnits="userSpaceOnUse" x1="248.3095" y1="395.5817" x2="248.3095" y2="378.929">
				<stop  offset="0" style="stop-color:#344DBF;stop-opacity:0"/>
				<stop  offset="1" style="stop-color:#344DBF"/>
			</linearGradient>
			<path style="fill:url(#SVGID_00000075851630575975984520000009341071267133407388_);" d="M242.697,390.564
				c0,4.509,3.655,8.165,8.165,8.165h3.06v-16.594l-11.224-13.599V390.564z"/>
			
				<linearGradient id="SVGID_00000101077968883695144210000008181642168272808327_" gradientUnits="userSpaceOnUse" x1="279.3748" y1="395.5817" x2="279.3748" y2="378.929">
				<stop  offset="0" style="stop-color:#344DBF;stop-opacity:0"/>
				<stop  offset="1" style="stop-color:#344DBF"/>
			</linearGradient>
			<polygon style="fill:url(#SVGID_00000101077968883695144210000008181642168272808327_);" points="272.484,360.479 
				286.265,373.697 286.265,398.729 272.484,398.729 			"/>
			
				<linearGradient id="SVGID_00000000200148696119469610000012678721580131030675_" gradientUnits="userSpaceOnUse" x1="337.8041" y1="395.5817" x2="337.8041" y2="378.9291">
				<stop  offset="0" style="stop-color:#344DBF;stop-opacity:0"/>
				<stop  offset="1" style="stop-color:#344DBF"/>
			</linearGradient>
			<polygon style="fill:url(#SVGID_00000000200148696119469610000012678721580131030675_);" points="324.656,339.385 
				350.953,373.979 350.953,398.729 324.656,398.729 			"/>
			
				<linearGradient id="SVGID_00000159451326620109895360000007340100562501914785_" gradientUnits="userSpaceOnUse" x1="383.2578" y1="395.5817" x2="383.2578" y2="378.929">
				<stop  offset="0" style="stop-color:#344DBF;stop-opacity:0"/>
				<stop  offset="1" style="stop-color:#344DBF"/>
			</linearGradient>
			<polygon style="fill:url(#SVGID_00000159451326620109895360000007340100562501914785_);" points="373.64,357.947 
				392.875,373.135 392.875,398.729 373.64,398.729 			"/>
			<path style="fill:#E05150;" d="M255.567,381.987c0,0.909-0.737,1.646-1.646,1.646c-0.909,0-1.646-0.737-1.646-1.646
				c0-0.909,0.737-1.646,1.646-1.646C254.831,380.341,255.567,381.078,255.567,381.987z"/>
			<path style="fill:#E05150;" d="M287.911,373.482c0,0.909-0.737,1.646-1.646,1.646c-0.909,0-1.646-0.737-1.646-1.646
				c0-0.909,0.737-1.646,1.646-1.646C287.174,371.836,287.911,372.573,287.911,373.482z"/>
			<circle style="fill:#E05150;" cx="350.953" cy="373.979" r="1.646"/>
			<path style="fill:#E05150;" d="M394.521,373.135c0,0.909-0.737,1.646-1.646,1.646c-0.909,0-1.646-0.737-1.646-1.646
				c0-0.909,0.737-1.646,1.646-1.646C393.784,371.489,394.521,372.226,394.521,373.135z"/>
			<path style="fill:#479D4F;" d="M375.286,357.947c0,0.909-0.737,1.646-1.646,1.646c-0.909,0-1.646-0.737-1.646-1.646
				c0-0.909,0.737-1.646,1.646-1.646C374.549,356.302,375.286,357.039,375.286,357.947z"/>
			<circle style="fill:#479D4F;" cx="324.656" cy="339.385" r="1.646"/>
			<path style="fill:#479D4F;" d="M274.13,360.479c0,0.909-0.737,1.646-1.646,1.646c-0.909,0-1.646-0.737-1.646-1.646
				c0-0.909,0.737-1.646,1.646-1.646C273.393,358.833,274.13,359.57,274.13,360.479z"/>
		</g>
		<g>
			<path style="opacity:0.15;" d="M411.275,214.327H198.298c-4.873,0-8.823-3.95-8.823-8.824V94.525c0-4.873,3.95-8.823,8.823-8.823
				h212.978c4.873,0,8.823,3.95,8.823,8.823v110.978C420.099,210.376,416.148,214.327,411.275,214.327z"/>
			<path style="fill:#5D9FE8;" d="M409.688,212.039H195.063c-4.418,0-8-3.582-8-8V91.414c0-4.418,3.582-8,8-8h214.625
				c4.418,0,8,3.582,8,8v112.625C417.688,208.457,414.106,212.039,409.688,212.039z"/>
			<g>
				
					<line style="fill:none;stroke:#F5F5F5;stroke-width:0.5;stroke-miterlimit:10;" x1="203.515" y1="101.508" x2="203.515" y2="212.039"/>
				<rect x="202.384" y="137.508" style="fill:#1E3FD1;" width="2.263" height="46.265"/>
				
					<line style="fill:none;stroke:#F5F5F5;stroke-width:0.5;stroke-miterlimit:10;" x1="208.338" y1="101.508" x2="208.338" y2="212.039"/>
				<rect x="207.206" y="128.227" style="fill:#1E3FD1;" width="2.263" height="23.617"/>
				
					<line style="fill:none;stroke:#F5F5F5;stroke-width:0.5;stroke-miterlimit:10;" x1="213.16" y1="101.508" x2="213.16" y2="212.039"/>
				<rect x="212.029" y="111.633" style="fill:#1E3FD1;" width="2.263" height="46.266"/>
				
					<line style="fill:none;stroke:#F5F5F5;stroke-width:0.5;stroke-miterlimit:10;" x1="217.983" y1="101.508" x2="217.983" y2="212.039"/>
				<rect x="216.851" y="125.344" style="fill:#1E3FD1;" width="2.263" height="46.266"/>
				
					<line style="fill:none;stroke:#F5F5F5;stroke-width:0.5;stroke-miterlimit:10;" x1="222.805" y1="101.508" x2="222.805" y2="212.039"/>
				<rect x="221.673" y="122.741" style="fill:#1E3FD1;" width="2.263" height="26.815"/>
				
					<line style="fill:none;stroke:#F5F5F5;stroke-width:0.5;stroke-miterlimit:10;" x1="227.628" y1="101.508" x2="227.628" y2="212.039"/>
				<rect x="226.496" y="129.914" style="fill:#1E3FD1;" width="2.263" height="24.476"/>
				
					<line style="fill:none;stroke:#F5F5F5;stroke-width:0.5;stroke-miterlimit:10;" x1="232.45" y1="101.508" x2="232.45" y2="212.039"/>
				<rect x="231.238" y="134.986" style="fill:#1E3FD1;" width="2.263" height="23.967"/>
				
					<line style="fill:none;stroke:#F5F5F5;stroke-width:0.5;stroke-miterlimit:10;" x1="237.272" y1="101.508" x2="237.272" y2="212.039"/>
				<rect x="236.141" y="152.152" style="fill:#1E3FD1;" width="2.263" height="31.621"/>
				
					<line style="fill:none;stroke:#F5F5F5;stroke-width:0.5;stroke-miterlimit:10;" x1="242.095" y1="101.508" x2="242.095" y2="212.039"/>
				
					<line style="fill:none;stroke:#F5F5F5;stroke-width:0.5;stroke-miterlimit:10;" x1="246.917" y1="101.508" x2="246.917" y2="212.039"/>
				<rect x="245.786" y="160.641" style="fill:#1E3FD1;" width="2.263" height="23.133"/>
				
					<line style="fill:none;stroke:#F5F5F5;stroke-width:0.5;stroke-miterlimit:10;" x1="251.74" y1="101.508" x2="251.74" y2="212.039"/>
				<rect x="250.608" y="137.508" style="fill:#1E3FD1;" width="2.263" height="37.962"/>
				
					<line style="fill:none;stroke:#F5F5F5;stroke-width:0.5;stroke-miterlimit:10;" x1="256.562" y1="101.508" x2="256.562" y2="212.039"/>
				<rect x="255.43" y="121.697" style="fill:#1E3FD1;" width="2.263" height="38.944"/>
				
					<line style="fill:none;stroke:#F5F5F5;stroke-width:0.5;stroke-miterlimit:10;" x1="261.385" y1="101.508" x2="261.385" y2="212.039"/>
				<rect x="260.253" y="119.019" style="fill:#1E3FD1;" width="2.263" height="19.771"/>
				
					<line style="fill:none;stroke:#F5F5F5;stroke-width:0.5;stroke-miterlimit:10;" x1="266.207" y1="101.508" x2="266.207" y2="212.039"/>
				<rect x="265.075" y="124.724" style="fill:#1E3FD1;" width="2.263" height="28.393"/>
				
					<line style="fill:none;stroke:#F5F5F5;stroke-width:0.5;stroke-miterlimit:10;" x1="271.029" y1="101.508" x2="271.029" y2="212.039"/>
				<rect x="269.898" y="137.508" style="fill:#1E3FD1;" width="2.263" height="29.531"/>
				
					<line style="fill:none;stroke:#F5F5F5;stroke-width:0.5;stroke-miterlimit:10;" x1="275.852" y1="101.508" x2="275.852" y2="212.039"/>
				<rect x="274.72" y="128.904" style="fill:#1E3FD1;" width="2.263" height="30.049"/>
				
					<line style="fill:none;stroke:#F5F5F5;stroke-width:0.5;stroke-miterlimit:10;" x1="280.674" y1="101.508" x2="280.674" y2="212.039"/>
				<rect x="279.543" y="125.133" style="fill:#1E3FD1;" width="2.263" height="19.266"/>
				
					<line style="fill:none;stroke:#F5F5F5;stroke-width:0.5;stroke-miterlimit:10;" x1="285.497" y1="101.508" x2="285.497" y2="212.039"/>
				<rect x="284.365" y="128.711" style="fill:#1E3FD1;" width="2.263" height="40.766"/>
				
					<line style="fill:none;stroke:#F5F5F5;stroke-width:0.5;stroke-miterlimit:10;" x1="290.319" y1="101.508" x2="290.319" y2="212.039"/>
				<rect x="289.188" y="127.329" style="fill:#1E3FD1;" width="2.263" height="37.741"/>
				
					<line style="fill:none;stroke:#F5F5F5;stroke-width:0.5;stroke-miterlimit:10;" x1="295.142" y1="101.508" x2="295.142" y2="212.039"/>
				<rect x="294.01" y="120.796" style="fill:#1E3FD1;" width="2.263" height="10.431"/>
				
					<line style="fill:none;stroke:#F5F5F5;stroke-width:0.5;stroke-miterlimit:10;" x1="299.964" y1="101.508" x2="299.964" y2="212.039"/>
				<rect x="298.832" y="125.961" style="fill:#1E3FD1;" width="2.263" height="19.913"/>
				
					<line style="fill:none;stroke:#F5F5F5;stroke-width:0.5;stroke-miterlimit:10;" x1="304.787" y1="101.508" x2="304.787" y2="212.039"/>
				<rect x="303.655" y="129.703" style="fill:#1E3FD1;" width="2.263" height="15.609"/>
				
					<line style="fill:none;stroke:#F5F5F5;stroke-width:0.5;stroke-miterlimit:10;" x1="309.609" y1="101.508" x2="309.609" y2="212.039"/>
				<rect x="308.477" y="136.872" style="fill:#1E3FD1;" width="2.263" height="16.882"/>
				
					<line style="fill:none;stroke:#F5F5F5;stroke-width:0.5;stroke-miterlimit:10;" x1="314.431" y1="101.508" x2="314.431" y2="212.039"/>
				<rect x="313.3" y="135.82" style="fill:#1E3FD1;" width="2.263" height="20.953"/>
				
					<line style="fill:none;stroke:#F5F5F5;stroke-width:0.5;stroke-miterlimit:10;" x1="319.254" y1="101.508" x2="319.254" y2="212.039"/>
				<rect x="318.122" y="134.368" style="fill:#1E3FD1;" width="2.263" height="20.296"/>
				
					<line style="fill:none;stroke:#F5F5F5;stroke-width:0.5;stroke-miterlimit:10;" x1="324.076" y1="101.508" x2="324.076" y2="212.039"/>
				<rect x="322.945" y="137.508" style="fill:#1E3FD1;" width="2.263" height="11.586"/>
				
					<line style="fill:none;stroke:#F5F5F5;stroke-width:0.5;stroke-miterlimit:10;" x1="328.899" y1="101.508" x2="328.899" y2="212.039"/>
				<rect x="327.767" y="140.203" style="fill:#1E3FD1;" width="2.263" height="22.195"/>
				
					<line style="fill:none;stroke:#F5F5F5;stroke-width:0.5;stroke-miterlimit:10;" x1="333.721" y1="101.508" x2="333.721" y2="212.039"/>
				<rect x="332.59" y="146.532" style="fill:#1E3FD1;" width="2.263" height="39.746"/>
				
					<line style="fill:none;stroke:#F5F5F5;stroke-width:0.5;stroke-miterlimit:10;" x1="338.544" y1="101.508" x2="338.544" y2="212.039"/>
				<rect x="337.412" y="149.074" style="fill:#1E3FD1;" width="2.263" height="32.178"/>
				
					<line style="fill:none;stroke:#F5F5F5;stroke-width:0.5;stroke-miterlimit:10;" x1="343.366" y1="101.508" x2="343.366" y2="212.039"/>
				<rect x="342.235" y="147.726" style="fill:#1E3FD1;" width="2.263" height="11.227"/>
				
					<line style="fill:none;stroke:#F5F5F5;stroke-width:0.5;stroke-miterlimit:10;" x1="348.189" y1="101.508" x2="348.189" y2="212.039"/>
				<rect x="347.057" y="138.92" style="fill:#1E3FD1;" width="2.263" height="13.231"/>
				
					<line style="fill:none;stroke:#F5F5F5;stroke-width:0.5;stroke-miterlimit:10;" x1="353.011" y1="101.508" x2="353.011" y2="212.039"/>
				<rect x="351.879" y="141.169" style="fill:#1E3FD1;" width="2.263" height="35.151"/>
				
					<line style="fill:none;stroke:#F5F5F5;stroke-width:0.5;stroke-miterlimit:10;" x1="357.833" y1="101.508" x2="357.833" y2="212.039"/>
				<rect x="356.702" y="159.726" style="fill:#1E3FD1;" width="2.263" height="32.883"/>
				
					<line style="fill:none;stroke:#F5F5F5;stroke-width:0.5;stroke-miterlimit:10;" x1="362.656" y1="101.508" x2="362.656" y2="212.039"/>
				
					<line style="fill:none;stroke:#F5F5F5;stroke-width:0.5;stroke-miterlimit:10;" x1="367.478" y1="101.508" x2="367.478" y2="212.039"/>
				<rect x="366.347" y="163.488" style="fill:#1E3FD1;" width="2.263" height="21.891"/>
				
					<line style="fill:none;stroke:#F5F5F5;stroke-width:0.5;stroke-miterlimit:10;" x1="372.301" y1="101.508" x2="372.301" y2="212.039"/>
				<rect x="371.169" y="151.912" style="fill:#1E3FD1;" width="2.263" height="26.501"/>
				
					<line style="fill:none;stroke:#F5F5F5;stroke-width:0.5;stroke-miterlimit:10;" x1="377.123" y1="101.508" x2="377.123" y2="212.039"/>
				<rect x="375.992" y="122.506" style="fill:#1E3FD1;" width="2.263" height="37.22"/>
				
					<line style="fill:none;stroke:#F5F5F5;stroke-width:0.5;stroke-miterlimit:10;" x1="381.946" y1="101.508" x2="381.946" y2="212.039"/>
				<rect x="380.814" y="115.788" style="fill:#1E3FD1;" width="2.263" height="29.749"/>
				
					<line style="fill:none;stroke:#F5F5F5;stroke-width:0.5;stroke-miterlimit:10;" x1="386.768" y1="101.508" x2="386.768" y2="212.039"/>
				<rect x="385.637" y="116.058" style="fill:#1E3FD1;" width="2.263" height="13.176"/>
				
					<line style="fill:none;stroke:#F5F5F5;stroke-width:0.5;stroke-miterlimit:10;" x1="391.591" y1="101.508" x2="391.591" y2="212.039"/>
				<rect x="390.459" y="122.646" style="fill:#1E3FD1;" width="2.263" height="16.031"/>
				
					<line style="fill:none;stroke:#F5F5F5;stroke-width:0.5;stroke-miterlimit:10;" x1="396.413" y1="101.508" x2="396.413" y2="212.039"/>
				<rect x="395.281" y="112.888" style="fill:#1E3FD1;" width="2.263" height="19.236"/>
				
					<line style="fill:none;stroke:#F5F5F5;stroke-width:0.5;stroke-miterlimit:10;" x1="401.236" y1="101.508" x2="401.236" y2="212.039"/>
				<rect x="400.104" y="118.036" style="fill:#1E3FD1;" width="2.263" height="22.167"/>
				<rect x="361.524" y="169.476" style="fill:#1E3FD1;" width="2.263" height="25.863"/>
			</g>
			<path style="fill:#F5F5F5;" d="M409.688,83.414H195.063c-4.418,0-8,3.582-8,8v14.5h230.625v-14.5
				C417.688,86.996,414.106,83.414,409.688,83.414z"/>
			<g>
				<g>
					<path style="fill:#344DBF;" d="M202.256,95.768c0,0.508-0.126,0.94-0.378,1.298s-0.604,0.63-1.058,0.817
						s-0.986,0.281-1.6,0.281c-0.324,0-0.631-0.016-0.92-0.047s-0.555-0.076-0.797-0.135s-0.455-0.131-0.639-0.217v-0.955
						c0.293,0.121,0.65,0.233,1.072,0.337s0.863,0.155,1.324,0.155c0.43,0,0.793-0.058,1.09-0.173s0.522-0.281,0.677-0.498
						s0.231-0.478,0.231-0.782c0-0.293-0.064-0.538-0.193-0.735s-0.343-0.377-0.642-0.539s-0.706-0.335-1.222-0.519
						c-0.363-0.129-0.684-0.271-0.961-0.425s-0.51-0.329-0.697-0.524s-0.329-0.422-0.425-0.68s-0.144-0.553-0.144-0.885
						c0-0.457,0.116-0.849,0.349-1.175s0.555-0.576,0.967-0.75s0.886-0.261,1.421-0.261c0.457,0,0.88,0.043,1.269,0.129
						s0.745,0.201,1.069,0.346l-0.311,0.855c-0.309-0.129-0.636-0.236-0.981-0.322s-0.702-0.129-1.069-0.129
						s-0.677,0.054-0.929,0.161s-0.444,0.259-0.577,0.454s-0.199,0.428-0.199,0.697c0,0.301,0.063,0.551,0.19,0.75
						s0.33,0.376,0.609,0.53s0.649,0.315,1.11,0.483c0.504,0.184,0.932,0.378,1.283,0.583s0.619,0.455,0.803,0.75
						S202.256,95.315,202.256,95.768z"/>
					<path style="fill:#344DBF;" d="M206.633,98.048h-1.002V90.36h-2.695v-0.879h6.381v0.879h-2.684V98.048z"/>
					<path style="fill:#344DBF;" d="M218.042,93.753c0,0.66-0.084,1.261-0.252,1.802s-0.417,1.006-0.747,1.395
						s-0.739,0.688-1.228,0.899s-1.055,0.316-1.699,0.316c-0.664,0-1.243-0.105-1.737-0.316s-0.904-0.512-1.23-0.902
						s-0.57-0.857-0.732-1.4s-0.243-1.145-0.243-1.805c0-0.875,0.145-1.643,0.434-2.303s0.728-1.174,1.315-1.541
						s1.325-0.551,2.212-0.551c0.848,0,1.562,0.182,2.142,0.545s1.02,0.874,1.318,1.532S218.042,92.858,218.042,93.753z
						 M211.221,93.753c0,0.727,0.104,1.355,0.311,1.887s0.524,0.941,0.952,1.23s0.972,0.434,1.632,0.434
						c0.664,0,1.208-0.145,1.632-0.434s0.737-0.699,0.94-1.23s0.305-1.16,0.305-1.887c0-1.105-0.231-1.97-0.694-2.593
						s-1.185-0.935-2.165-0.935c-0.664,0-1.211,0.143-1.641,0.428s-0.749,0.69-0.958,1.216S211.221,93.022,211.221,93.753z"/>
					<path style="fill:#344DBF;" d="M223.608,90.237c-0.473,0-0.897,0.081-1.274,0.243s-0.697,0.396-0.961,0.703
						s-0.466,0.677-0.606,1.11s-0.211,0.922-0.211,1.465c0,0.719,0.112,1.343,0.337,1.872s0.561,0.938,1.008,1.228
						s1.007,0.434,1.679,0.434c0.383,0,0.743-0.032,1.081-0.097s0.667-0.146,0.987-0.243v0.867
						c-0.313,0.117-0.641,0.204-0.984,0.261s-0.752,0.085-1.225,0.085c-0.871,0-1.599-0.181-2.183-0.542s-1.021-0.872-1.313-1.532
						s-0.437-1.439-0.437-2.338c0-0.648,0.091-1.241,0.272-1.778s0.447-1.001,0.797-1.392s0.779-0.692,1.289-0.905
						s1.095-0.319,1.755-0.319c0.434,0,0.852,0.043,1.254,0.129s0.766,0.209,1.09,0.369l-0.398,0.844
						c-0.273-0.125-0.573-0.233-0.899-0.325S223.987,90.237,223.608,90.237z"/>
					<path style="fill:#344DBF;" d="M233.68,98.048h-1.178l-3.088-4.166l-0.914,0.82v3.346h-0.996v-8.566h0.996v4.271
						c0.223-0.254,0.451-0.507,0.686-0.759s0.467-0.507,0.697-0.765l2.502-2.748h1.166l-3.41,3.715L233.68,98.048z"/>
					<path style="fill:#344DBF;" d="M239.686,95.768c0,0.508-0.126,0.94-0.378,1.298s-0.604,0.63-1.058,0.817
						s-0.986,0.281-1.6,0.281c-0.324,0-0.631-0.016-0.92-0.047s-0.555-0.076-0.797-0.135s-0.455-0.131-0.639-0.217v-0.955
						c0.293,0.121,0.65,0.233,1.072,0.337s0.863,0.155,1.324,0.155c0.43,0,0.793-0.058,1.09-0.173s0.522-0.281,0.677-0.498
						s0.231-0.478,0.231-0.782c0-0.293-0.064-0.538-0.193-0.735s-0.343-0.377-0.642-0.539s-0.706-0.335-1.222-0.519
						c-0.363-0.129-0.684-0.271-0.961-0.425s-0.51-0.329-0.697-0.524s-0.329-0.422-0.425-0.68s-0.144-0.553-0.144-0.885
						c0-0.457,0.116-0.849,0.349-1.175s0.555-0.576,0.967-0.75s0.886-0.261,1.421-0.261c0.457,0,0.88,0.043,1.269,0.129
						s0.745,0.201,1.069,0.346l-0.311,0.855c-0.309-0.129-0.636-0.236-0.981-0.322s-0.702-0.129-1.069-0.129
						s-0.677,0.054-0.929,0.161s-0.444,0.259-0.577,0.454s-0.199,0.428-0.199,0.697c0,0.301,0.063,0.551,0.19,0.75
						s0.33,0.376,0.609,0.53s0.649,0.315,1.11,0.483c0.504,0.184,0.932,0.378,1.283,0.583s0.619,0.455,0.803,0.75
						S239.686,95.315,239.686,95.768z"/>
				</g>
			</g>
			<rect x="240.871" y="173.867" style="fill:#1E3FD1;" width="2.263" height="24.823"/>
		</g>
		
			<linearGradient id="SVGID_00000070837043029091015000000012219925225320516515_" gradientUnits="userSpaceOnUse" x1="100.1865" y1="238.832" x2="100.1865" y2="179.5774">
			<stop  offset="0" style="stop-color:#344DBF;stop-opacity:0"/>
			<stop  offset="0.9721" style="stop-color:#344DBF"/>
		</linearGradient>
		<polygon style="fill:url(#SVGID_00000070837043029091015000000012219925225320516515_);" points="124.763,197.356 
			100.186,162.766 75.61,197.356 89.263,197.356 89.263,243.837 111.109,243.837 111.109,197.356 		"/>
		
			<linearGradient id="SVGID_00000183942208811467949470000014266048614554565268_" gradientUnits="userSpaceOnUse" x1="638.9428" y1="173.777" x2="638.9428" y2="224.9922">
			<stop  offset="0" style="stop-color:#42866F;stop-opacity:0"/>
			<stop  offset="1" style="stop-color:#479D4F"/>
		</linearGradient>
		<polygon style="fill:url(#SVGID_00000183942208811467949470000014266048614554565268_);" points="614.303,223.265 
			638.943,257.943 663.583,223.265 649.894,223.265 649.894,176.665 627.992,176.665 627.992,223.265 		"/>
		<g>
			<g>
				<path style="fill:#1E3FD1;" d="M254.48,205.03h-40.86c-1.387,0-2.207-1.124-1.831-2.511l7.971-29.425
					c0.376-1.387,1.805-2.512,3.192-2.512h40.86c1.387,0,2.207,1.124,1.831,2.512l-7.971,29.425
					C257.296,203.905,255.867,205.03,254.48,205.03z"/>
				<path style="fill:none;stroke:#0E1D61;stroke-width:0.3166;stroke-miterlimit:10;" d="M254.066,203.185h-39.032
					c-0.765,0-1.218-0.62-1.01-1.386l7.581-27.987c0.207-0.765,0.996-1.386,1.761-1.386h39.032c0.765,0,1.218,0.62,1.01,1.386
					l-7.581,27.987C255.62,202.565,254.831,203.185,254.066,203.185z"/>
				<path style="fill:#C0E2E8;" d="M254.066,203.185h-39.032c-0.765,0-1.218-0.62-1.01-1.386l7.581-27.987
					c0.207-0.765,0.996-1.386,1.761-1.386h39.032c0.765,0,1.218,0.62,1.01,1.386l-7.581,27.987
					C255.62,202.565,254.831,203.185,254.066,203.185z"/>
				
					<linearGradient id="SVGID_00000042703456090453037120000000423526680056851616_" gradientUnits="userSpaceOnUse" x1="237.0102" y1="200.1235" x2="239.2602" y2="180.7172">
					<stop  offset="0" style="stop-color:#344DBF;stop-opacity:0"/>
					<stop  offset="1" style="stop-color:#344DBF"/>
				</linearGradient>
				<path style="fill:url(#SVGID_00000042703456090453037120000000423526680056851616_);" d="M255.827,201.799l6.641-24.514
					l-10.343,10.391l-0.522-2.985l-10.556,12.234l-0.293-2.813l-1.812,1.758l-0.392-11.531l-9.267,7.734l-0.969-3.689l-8.467,6.08
					l-0.792-3.047l-2.75,1.962l-2.281,8.42c-0.207,0.766,0.245,1.386,1.01,1.386h39.032
					C254.831,203.185,255.62,202.565,255.827,201.799z"/>
				<path style="fill:#E05150;" d="M258.155,176.817h-8.226c-0.5,0-0.795-0.405-0.66-0.905l0.165-0.608
					c0.135-0.5,0.65-0.905,1.15-0.905h8.226c0.5,0,0.795,0.405,0.66,0.905l-0.165,0.608
					C259.169,176.412,258.654,176.817,258.155,176.817z"/>
				<path style="fill:#479D4F;" d="M246.483,176.817h-8.226c-0.5,0-0.795-0.405-0.66-0.905l0.165-0.608
					c0.135-0.5,0.65-0.905,1.15-0.905h8.226c0.5,0,0.795,0.405,0.66,0.905l-0.165,0.608
					C247.497,176.412,246.982,176.817,246.483,176.817z"/>
			</g>
			<path style="fill:#E87A71;" d="M265.493,199.09l0.891-4.688c0,0,1.029-7.989-3.518-10.707l-0.722,2.773
				c-0.241,0.927-1.223,1.451-2.127,1.136l-3.759-1.311l-0.193,0.633c-0.172,0.567,0.131,1.168,0.69,1.363
				c0.82,0.287,1.866,0.765,2.034,1.379c0.281,1.031,0.288,2.719,2.394,3.797l-2.101,2.271L265.493,199.09z"/>
			<path style="fill:#E0C180;" d="M257.437,196.307l2.742-2.25c0,0,5.555,0.703,6.258,6.328l-2.531,5.062L257.437,196.307z"/>
			<path style="fill:#0B184F;" d="M128.297,404.9l-3.656,6.188c0,0,1.406,5.625,5.344,8.156c1.974,1.269,3.901,2.821,5.332,4.053
				c1.668,1.436,3.735,2.324,5.928,2.509c2.525,0.213,5.553,0.344,6.084-0.187c0.938-0.938-5.906-6.75-5.906-6.75l-3.188-7.031
				l0.281-6.094L128.297,404.9z"/>
			<path style="fill:#0B184F;" d="M196.406,415.446l-1.653,8.642c-0.429,2.242,1.052,4.411,3.3,4.804
				c1.038,0.181,2.307,0.264,3.836,0.149c5.625-0.422,7.594-2.16,12.375-3.049c4.781-0.889,10.828-4.685,10.266-6.654
				c-0.563-1.969-14.203-2.531-14.203-2.531l-2.25-3.133L196.406,415.446z"/>
			<path style="fill:#12257A;" d="M212.859,266.619l2.115,66.656l-5.771,82.406c0,0-8.719,2.531-14.625,0c0,0-3.938-57.937-1.969-81
				l-13.781-64.687L212.859,266.619z"/>
			<path style="fill:#12257A;" d="M183.63,259.533l-16.55,71.836l-26.618,78.202c0,0-5.508-2.89-14.14-3.734
				c0,0,10.984-57.023,18.776-78.818l3.919-69.119L183.63,259.533z"/>
			<path style="fill:#0B184F;" d="M212.859,266.619l-31.584,3.132l2.354-10.218l-34.614-1.633l-2.371,41.815
				c7.5-2.894,18.716-6.652,30.102-10.309l3.23-14.019l2.591,12.163c12.214-3.87,23.912-7.425,30.655-9.455L212.859,266.619z"/>
			<path style="fill:#12257A;" d="M154.186,160.729c-8.64-0.516-13.468,3.711-17.202,13.124
				c-4.024,10.144-8.971,29.803-12.92,40.812c-4.158,11.595,3.717,28.751,29.462,20.313L154.186,160.729z"/>
			<path style="fill:#0B184F;" d="M153.527,234.979l0.158-17.771l-4.807-8.956c0,0-10.146,25.458-24.216,19.919
				C128.13,235.418,137.256,240.311,153.527,234.979z"/>
			<path style="fill:#E87A71;" d="M177.501,137.187l1.624,5.248c0,0,2.811,3.124,2.811,6.747c0,1.553-0.29,2.853-0.622,3.832
				c-0.413,1.219-1.654,1.958-2.932,1.806l-1.194-0.141l-1.437,8.246h-13.244l3.561-12.307l6.435-12.369L177.501,137.187z"/>
			<path style="fill:#0E1D61;" d="M179.25,131.939c-2.062-0.875-3.131,1.51-8.809,1.124c-6.435-0.437-10.328,3.124-8.808,7.184
				c-4.123,5.007-0.07,9.705,1.856,11.488c0.585,0.542,0.93,1.295,0.985,2.091l0.128,1.859c0,0,5.902,0.367,9.65-3.944
				c0.7-0.805,1.137-1.753,1.388-2.763c-0.425,0.432-0.994,0.702-1.624,0.702c-1.311,0-2.374-1.147-2.374-2.561
				c0-1.415,1.063-2.561,2.374-2.561c0.758,0,1.426,0.391,1.86,0.988c-0.241-3.419-1.624-6.548-1.624-6.548
				C180.937,138.874,181.311,132.814,179.25,131.939z"/>
			<path style="fill:#12257A;" d="M257.437,196.307l-21.375,15.469l-22.432-35.558c-6.082-9.641-16.685-15.489-28.085-15.489
				h-17.405h-13.954c-5.403,0-9.623,4.666-9.082,10.042l6.817,67.724l-10.688,28.5c7.709,4.009,15.127,6.644,22.106,8.28
				l3.769-14.092l1.499,15.158c28.43,4.836,48.329-6.486,48.329-6.486l-4.922-25.875l-1.969-19.406c0,0,4.164,6.688,6.891,10.547
				c7.453,10.547,24.188,8.016,29.531,1.125c5.344-6.891,19.266-29.109,19.266-29.109
				C265.453,198.416,257.437,196.307,257.437,196.307z"/>
			<polygon style="fill:#0B184F;" points="210.047,224.572 195.984,195.604 214.974,259.533 212.016,243.978 			"/>
			<polyline style="fill:none;stroke:#0B184F;stroke-width:0.5;stroke-miterlimit:10;" points="163.641,187.344 170.102,233.713 
				168.141,256.213 			"/>
			
				<line style="fill:none;stroke:#0B184F;stroke-width:0.5;stroke-miterlimit:10;" x1="148.878" y1="208.251" x2="146.162" y2="181.274"/>
		</g>
		<g>
			<ellipse style="fill:#C0E2E8;" cx="566.357" cy="421.403" rx="73.875" ry="21.75"/>
			<path style="fill:#E87A71;" d="M532.921,288.076c0,0,7.031,83.921,7.313,95.452c0.281,11.531,0.386,20.147-1.688,23.906
				c-1.5,2.719-4.969,8.25-4.969,8.25s-7.125,4.688-6.938,6s6.094-0.094,9.844-0.75c3.75-0.656,10.5-8.719,10.5-8.719v9.656h2.25
				c0,0,0-4.969,1.313-7.688c1.313-2.719,1.406-8.063-1.313-10.688c0,0,5.25-33.224,7.5-48.346
				c2.25-15.122-1.597-31.622-1.597-37.81s2.303-28.734,2.303-28.734L532.921,288.076z"/>
			<path style="fill:#E87A71;" d="M568.425,288.076c0,0,21.696,83.921,23.992,95.452s3.907,20.147,2.49,23.906
				c-1.025,2.719-3.527,8.25-3.527,8.25s-6.306,4.688-5.889,6c0.417,1.313,6.077-0.094,9.713-0.75
				c3.635-0.656,8.976-8.719,8.976-8.719l1.687,9.656h2.25c0,0-0.868-4.969-0.031-7.688c0.837-2.719-0.003-8.063-3.18-10.688
				c0,0-0.556-33.224-0.948-48.346c-0.393-15.122-7.123-31.622-8.204-37.81s-2.718-28.734-2.718-28.734L568.425,288.076z"/>
			<g>
				<path style="fill:#C2392D;" d="M595.754,317.34c-1.081-6.188-2.718-28.734-2.718-28.734l-24.611-0.531
					c0,0,3.418,13.223,7.684,29.889c7.273,3.2,14.983,6.87,22.899,11.045C597.53,323.964,596.188,319.822,595.754,317.34z"/>
				<path style="fill:#C2392D;" d="M532.921,288.076c0,0,0.478,5.707,1.189,14.34c5.302,1.585,12.672,3.953,21.431,7.209
					c0.661-8.906,1.898-21.018,1.898-21.018L532.921,288.076z"/>
			</g>
			<g>
				<path style="fill:#244DFF;" d="M540.738,177.248l-8.983-0.705c-0.629-0.049-1.175-0.599-1.219-1.229l-1.23-17.45
					c-0.044-0.629,0.43-1.099,1.059-1.05l8.983,0.705c0.629,0.049,1.175,0.599,1.219,1.229l1.231,17.45
					C541.841,176.827,541.367,177.297,540.738,177.248z"/>
				<g>
					<path style="fill:#0E1D61;" d="M532.544,158.837c0.027,0.378-0.258,0.66-0.635,0.63c-0.378-0.03-0.705-0.36-0.732-0.737
						c-0.027-0.378,0.258-0.66,0.635-0.63S532.517,158.46,532.544,158.837z"/>
					<polygon style="fill:#0E1D61;" points="536.607,159.455 533.142,159.183 533.1,158.582 536.564,158.854 					"/>
				</g>
				
					<line style="fill:none;stroke:#0E1D61;stroke-width:0.2975;stroke-miterlimit:10;" x1="539.249" y1="159.019" x2="540.515" y2="175.755"/>
			</g>
			<path style="fill:#0B184F;" d="M554.393,144.739c0,0-5.341-0.772-7.915,3.524c-2.438,4.07-0.708,8.251,0,11.147
				c0.424,1.733,0.183,4.517-0.078,6.472c-0.155,1.163,0.8,2.174,1.971,2.098l14.064-0.913c0,0,10.231,0.45,11.325-3.475
				c1.094-3.925-4.826-5.784-4.826-9.974C568.935,148.985,565.975,140.041,554.393,144.739z"/>
			<path style="fill:#E87A71;" d="M522.937,183.419l6.234-9.141l0.281-6.75c0,0,0.844-8.297,1.359-8.344
				c0.516-0.047,0.563,7.078,0.563,7.078s5.063-3.656,5.625-3.328c0.563,0.328-4.734,5.049-4.734,5.049s6.047-1.393,6.609-0.877
				c0.563,0.516-5.766,2.344-5.766,2.344s5.016,0,5.063,0.469c0.047,0.469-4.031,0.75-4.031,0.75s0.75,5.156-1.734,6.141
				l-1.482,9.187L522.937,183.419z"/>
			<path style="fill:#244DFF;" d="M535.546,231.653c0,0-8.625,20.719-3.469,61.125h64.21c0,0-2.617-39.75-14.429-60l-22.641-19.828
				l-11.672,5.538L535.546,231.653z"/>
			<g>
				<g>
					<path style="fill:#0B184F;" d="M598.692,280.196h-26.221l1.506-8.141c0.388-2.095,2.215-3.614,4.345-3.614h14.518
						c2.13,0,3.957,1.519,4.345,3.614L598.692,280.196z M574.875,278.196h21.412l-1.069-5.777c-0.212-1.146-1.212-1.977-2.378-1.977
						h-14.518c-1.166,0-2.166,0.832-2.378,1.977L574.875,278.196z"/>
				</g>
				<g>
					<rect x="555.136" y="276.219" style="fill:#12257A;" width="60.89" height="42.89"/>
					<path style="fill:#1E3FD1;" d="M603.415,312.736h-35.667c-4.953,0-9.108-3.735-9.635-8.66l-2.977-27.857h60.891l-2.977,27.857
						C612.524,309,608.368,312.736,603.415,312.736z"/>
				</g>
			</g>
			<path style="fill:#E87A71;" d="M582.983,258.919l-0.328,3.277l-2.666,6.918c-0.306,0.794-0.312,1.673-0.018,2.471l0.152,0.413
				c0.408,1.107,1.463,1.842,2.643,1.842h3.111c1.04,0,1.989-0.592,2.447-1.526l0.752-1.536l-0.797-1.423
				c0,0,2.344-4.744,0.281-6.857l0.849-3.752L582.983,258.919z"/>
			<path style="fill:#12257A;" d="M587.858,176.997c-5.625-6.656-20.546-10.147-20.546-10.147l-9.342,0.474
				c-13.763,4.577-24.347,18.486-24.347,18.486l-11.531-4.078c0,0-8.719,17.578-9.563,24.023
				c-0.844,6.445,4.641,10.008,12.234,8.883s15.469-13.121,15.469-13.121l1.969,2.574l-8.438,30.656
				c3.034,0.465,6.255,0.796,9.545,1.023c4.12,0.283,7.833-2.48,8.728-6.512l1.946-8.77l4.811,11.681
				c0.996,2.418,3.393,3.959,6.006,3.877c11.384-0.359,19.093-1.299,19.093-1.299l-9.999-21.094L587.858,176.997z"/>
			<path style="fill:#244DFF;" d="M563.437,165.841c4.852-0.773,12.656,9.07,12.656,9.07l-12.867,7.031l4.289,3.146
				c0,0-11.672,3.674-13.219,6.768c-1.688-5.063-5.414-8.086-5.414-8.086l4.078-2.813l-5.414-6.525
				C547.546,174.433,554.478,167.269,563.437,165.841z"/>
			<polygon style="fill:#0B184F;" points="575.191,187.356 573.895,213.653 581.188,194.507 			"/>
			<path style="fill:#E87A71;" d="M554.859,148.263c0,0,0.07,5.625,7.594,6.891c0,0,0.633-2.426,2.602-1.969
				c2.239,0.52,1.336,4.57-0.773,4.359l2.021,9.914c0,0-9.122,13.852-10.81,19.336c-0.914-6.188,3.094-17.226,3.094-17.226
				l-0.633-4.359c0,0-1.934,0.844-4.219-0.422c-2.285-1.266-2.109-4.219-2.496-5.871c-0.387-1.652-1.652-4.746-1.652-4.746
				S552.187,149.141,554.859,148.263z"/>
			<path style="fill:#C2392D;" d="M557.952,165.208c2.039-0.668,3.621-3.34,4.113-4.57c0.035,2.848-1.648,6.443-3.689,7.493
				L557.952,165.208z"/>
			<polyline style="fill:none;stroke:#0B184F;stroke-width:0.3463;stroke-miterlimit:10;" points="554.296,191.856 548.859,204.278 
				553.359,219.653 			"/>
			
				<line style="fill:none;stroke:#0B184F;stroke-width:0.3463;stroke-miterlimit:10;" x1="533.624" y1="185.809" x2="528.632" y2="204.512"/>
			<path style="fill:#0B184F;" d="M533.172,209.827c4.071-3.759,7.061-8.311,7.061-8.311c-1.406-1.926-1.055-8.006,1.547-13.139
				C536.384,194.098,536.227,204.475,533.172,209.827z"/>
			<path style="fill:#12257A;" d="M575.191,186.794l5.498,34.036v39.149h10.162c0,0,3.998-24.656,4.998-41.148
				c0.999-16.492-4.319-36.688-7.99-41.833C587.858,176.997,575.427,181.463,575.191,186.794z"/>
			<path style="fill:#244DFF;" d="M552.698,205.514c0,0.553-0.448,1.001-1.001,1.001c-0.553,0-1.001-0.448-1.001-1.001
				c0-0.553,0.448-1.001,1.001-1.001C552.25,204.512,552.698,204.961,552.698,205.514z"/>
			<rect x="563.015" y="222.864" style="fill:#244DFF;" width="12.938" height="1.617"/>
			<polygon style="fill:#244DFF;" points="546.11,224.481 536.718,224.481 537.035,222.864 546.11,222.864 			"/>
			<path style="fill:#12257A;" d="M549.234,421.871c0,0,0-4.969,1.312-7.688c1.312-2.719,1.406-8.063-1.312-10.688
				c-3.234-2.039-8.719,8.578-8.719,8.578s-2.329-0.276-3.675-1.709c-1.542,2.573-3.263,5.318-3.263,5.318s-7.125,4.688-6.938,6
				s6.094-0.094,9.844-0.75c3.75-0.656,10.5-8.719,10.5-8.719v9.656H549.234z"/>
			<path style="fill:#12257A;" d="M608.117,421.871c0,0-0.868-4.969-0.031-7.688c0.837-2.719-0.003-8.063-3.18-10.688
				c-3.591-2.039-7.22,8.578-7.22,8.578s-2.377-0.276-3.973-1.709c-1.092,2.573-2.334,5.318-2.334,5.318s-6.306,4.688-5.889,6
				c0.417,1.313,6.077-0.094,9.713-0.75c3.635-0.656,8.977-8.719,8.977-8.719l1.687,9.656H608.117z"/>
		</g>
		
			<ellipse transform="matrix(0.9264 -0.3765 0.3765 0.9264 -15.2611 68.9273)" style="fill:none;stroke:#A0D0D9;stroke-miterlimit:10;" cx="168.729" cy="73.511" rx="16.664" ry="16.664"/>
	</g>
</g>
</svg>
